<svg xmlns="http://www.w3.org/2000/svg">

	<g id="nav-mobile">
		<path d="M20,5H0V3h20V5z M20,9H0v2h20V9z M20,15H0v2h20V15z"/>
	</g>

	<g id="close">
		<path d="M15.68,0.32L15.68,0.32c-0.42-0.42-1.11-0.42-1.54,0L8,6.46L1.85,0.32c-0.42-0.42-1.11-0.42-1.54,0l0,0 c-0.42,0.42-0.42,1.11,0,1.54L6.46,8l-6.15,6.15c-0.42,0.42-0.42,1.11,0,1.54l0,0c0.42,0.42,1.11,0.42,1.54,0L8,9.54l6.15,6.15 c0.42,0.42,1.11,0.42,1.54,0l0,0c0.42-0.42,0.42-1.11,0-1.54L9.54,8l6.15-6.15C16.11,1.43,16.11,0.74,15.68,0.32z"/>
	</g>

	<g id="arrow-prev">
		<path d="M0.7,25l25-25l3.5,3.5L7.7,25l21.5,21.5L25.7,50L0.7,25z"/>
	</g>

	<g id="arrow-next">
		<path d="M30.2,25l-25,25l-3.5-3.5L23.3,25L1.8,3.5L5.2,0L30.2,25z"/>
	</g>

</svg>